<svg version="1.1" id="Layer_1" xmlns="http://www.w3.org/2000/svg" x="0px" y="0px"
	 width="100%" viewBox="0 0 1024 992" enable-background="new 0 0 1024 992" xml:space="preserve">
<defs>
    <linearGradient id="mainGradient" x1="0%" y1="0%" x2="100%" y2="100%">
        <stop offset="0%" stop-color="#0066FF" />
		<stop offset="100%" stop-color="#00D4FF" />
    </linearGradient>
	<linearGradient id="glassesGradient" x1="0%" y1="0%" x2="100%" y2="0%">
        <stop offset="0%" stop-color="#333333" />
		<stop offset="100%" stop-color="#666666" />
    </linearGradient>
</defs>
	<path fill="url(#mainGradient)" opacity="1.000000" stroke="none"
		  d="
M776.882629,614.909607
	C791.702271,604.796265 802.736328,592.001526 809.718018,575.758911
	C812.667664,568.896545 817.077759,563.261353 823.695801,559.307007
	C834.858643,552.637085 845.311768,557.442261 851.938538,565.794983
	C859.923828,575.859863 860.276855,587.179321 854.391113,598.188782
	C840.950745,623.329346 822.949646,644.210144 797.504333,658.200623
	C775.579346,670.255432 752.089783,676.438538 727.349976,677.436157
	C710.717468,678.106934 694.984924,673.948059 681.289062,663.796204
	C679.856750,662.734497 678.545105,661.285339 676.162720,661.868713
	C674.200256,666.303711 675.877197,670.545044 677.413940,674.649353
	C682.627563,688.573547 690.735413,699.818787 705.442383,705.192017
	C716.469116,709.220703 726.896973,708.338135 737.072083,702.706421
	C747.538330,696.913696 757.525391,690.075378 769.393555,687.253845
	C812.661377,676.966858 851.999573,694.988770 867.257141,737.942993
	C881.054504,776.786194 862.454407,818.442932 826.521851,838.159668
	C819.183044,842.186523 811.495178,845.246582 803.071106,846.293945
	C789.830505,847.940247 777.690979,840.688599 774.925903,829.279785
	C771.604614,815.576477 777.639160,803.941162 790.877258,798.768738
	C795.052795,797.137329 799.357178,795.838379 803.582703,794.331604
	C825.182129,786.629578 830.690002,757.101807 813.432922,741.573120
	C801.605835,730.930603 787.976929,729.595459 773.285828,737.722900
	C765.712952,741.912354 758.707947,747.112427 750.752930,750.618103
	C728.862000,760.265198 706.700623,759.591370 685.293518,750.047974
	C656.292175,737.119019 637.682800,714.404663 628.450195,684.175354
	C626.072876,676.391479 625.756653,668.122009 625.760193,659.919617
	C625.786926,597.088806 625.757812,534.258057 625.754089,471.427246
	C625.753601,463.164978 625.748047,462.790070 617.687805,463.360962
	C596.277771,464.877472 576.945557,459.126099 560.275330,445.989746
	C543.193787,432.529175 531.412964,415.253174 527.468201,393.363922
	C526.170837,386.164581 524.826233,378.967590 523.804565,371.726990
	C523.151245,367.096619 520.700806,364.049316 516.273132,363.762817
	C511.488098,363.453217 509.286163,367.143829 508.370911,371.336761
	C506.461395,380.084717 505.246674,389.013702 502.861786,397.623260
	C494.317139,428.469666 474.697266,448.976349 444.383118,459.425201
	C434.263031,462.913452 423.959991,463.580902 413.430359,463.278381
	C406.232178,463.071594 406.169098,463.204559 406.159576,470.268127
	C406.078674,530.265625 406.094818,590.263367 405.920868,650.260498
	C405.849487,674.884766 400.971039,698.252563 386.056641,718.584351
	C360.682861,753.174683 315.715759,766.025452 281.000610,751.109619
	C274.531494,748.330017 268.832275,744.252319 262.979065,740.434204
	C252.707458,733.733948 242.061615,729.623047 229.540894,734.062378
	C218.013184,738.149597 211.254227,746.302917 209.450653,757.981262
	C207.336899,771.668091 211.445496,783.366699 223.406540,791.447693
	C227.855576,794.453430 232.851639,796.252136 237.980759,797.778564
	C248.245651,800.833496 254.973663,807.629639 257.322113,818.025940
	C260.187531,830.710632 251.039856,843.166504 237.572800,845.886475
	C229.391724,847.538757 221.662537,846.093140 214.220245,842.721741
	C189.888596,831.699219 173.007065,813.440857 164.143661,788.454590
	C150.615509,750.318359 169.097015,706.791199 205.807373,690.964172
	C230.574677,680.286133 255.802795,681.841614 279.973114,694.802795
	C286.843262,698.486877 293.492126,702.629639 301.015961,705.089355
	C316.405609,710.120667 333.521088,704.961365 343.753906,693.502014
	C351.673859,684.632751 355.558105,674.183472 356.520508,662.511108
	C353.815552,661.231506 352.202484,662.895874 350.644165,663.824219
	C332.074890,674.886475 312.099792,678.123962 290.644958,676.658142
	C263.947784,674.834290 240.143906,665.550903 219.278687,649.693054
	C200.583130,635.484192 185.371155,617.693970 175.824936,595.791870
	C173.150757,589.656494 171.587173,583.130615 173.249680,576.324829
	C175.918076,565.401367 182.687683,558.380066 193.750168,556.279968
	C202.482544,554.622253 212.726852,560.953674 218.115570,571.417847
	C225.338791,585.444275 233.583542,598.548584 245.811722,608.874329
	C258.822540,619.860901 273.315948,626.867920 290.464935,629.057617
	C305.073273,630.923035 318.745331,629.361206 331.211884,621.632446
	C346.941925,611.880310 356.231415,597.416260 356.525208,578.874146
	C357.158783,538.885498 356.788544,498.881317 356.933533,458.883911
	C356.946014,455.440582 355.803680,453.043457 353.391724,450.577789
	C334.610870,431.378174 321.396210,409.056702 315.355988,382.638031
	C314.084656,377.077545 313.591522,371.475922 312.793945,365.892090
	C312.218109,361.860352 310.636200,359.831879 306.254883,359.413635
	C292.206696,358.072449 291.091064,356.712799 290.993317,342.628906
	C290.905426,329.963257 290.869812,317.296631 290.916718,304.630859
	C290.942719,297.612244 293.385742,295.114960 300.364532,294.547272
	C311.867493,293.611511 312.211365,293.693024 315.187683,281.138641
	C320.615662,258.243103 331.050140,237.890182 344.810699,218.962250
	C362.768219,194.261230 384.085602,173.214340 410.609344,157.890457
	C430.019196,146.676575 450.830170,138.982986 472.897461,134.587723
	C488.459015,131.488235 504.070892,129.401901 519.943054,129.795776
	C562.709778,130.857040 601.672729,143.676025 636.708618,168.182724
	C675.487366,195.307434 701.158875,232.052475 715.508789,276.896667
	C716.807800,280.955933 718.256592,285.097900 718.337952,289.498230
	C718.390808,292.355042 719.723328,293.801208 722.794067,293.361938
	C724.090942,293.176422 725.455688,293.287537 726.770569,293.434204
	C738.449890,294.737091 740.236877,296.820343 740.253418,308.563446
	C740.271057,321.061829 740.367615,333.560425 740.500183,346.058197
	C740.600037,355.459167 737.205322,359.006104 727.688293,359.241577
	C718.945007,359.457886 719.230835,359.705170 718.196655,368.171875
	C715.500916,390.240906 708.665466,410.971588 696.171448,429.528168
	C690.598633,437.805115 684.746582,445.958984 676.986633,452.439850
	C675.352844,453.804352 675.169312,455.498749 675.170654,457.366119
	C675.199585,498.028259 675.012085,538.692139 675.338684,579.351868
	C675.518188,601.702454 693.096252,621.304504 714.498047,626.779785
	C736.942871,632.521912 757.542603,627.806519 776.882629,614.909607
M396.525879,228.996918
	C390.215881,235.465958 384.981476,242.792725 379.979187,250.260834
	C372.253510,261.794769 366.160309,274.135681 362.745941,287.673767
	C361.548981,292.419678 362.656189,293.758362 367.606934,293.610291
	C370.431976,293.525787 373.251465,293.063599 376.072571,293.072052
	C402.209106,293.150726 428.330200,293.741791 454.158447,298.237305
	C464.092957,299.966431 474.125244,301.713684 483.715515,304.720490
	C503.914062,311.053253 524.000183,312.357910 544.485229,306.505035
	C556.756531,302.998932 569.244019,300.280457 581.828186,298.208313
	C602.230774,294.848724 622.829773,293.787048 643.496460,293.748169
	C650.818848,293.734375 658.139404,293.258789 665.462952,293.089539
	C669.005493,293.007660 670.370605,291.719849 669.000793,288.114716
	C667.764221,284.860382 667.009644,281.417206 665.696350,278.198547
	C651.623047,243.708618 628.279968,217.213593 596.498108,197.953461
	C572.290710,183.283554 545.863464,176.326691 517.797058,175.360626
	C497.382416,174.657913 477.759796,179.030121 458.844971,186.432541
	C435.073029,195.735809 414.458221,209.815369 396.525879,228.996918
M398.427887,328.188904
	C391.093109,327.915894 383.810333,328.441254 376.535736,329.396149
	C366.378204,330.729523 359.302277,337.380188 358.099854,346.218750
	C356.329132,359.234741 356.871552,372.121307 360.204285,384.756683
	C363.508972,397.285645 369.932739,408.065674 380.725281,415.687195
	C393.285736,424.557190 407.178070,426.927673 422.405365,424.922852
	C439.000183,422.737976 451.224609,414.409973 460.064178,400.760468
	C467.296051,389.593506 469.959839,376.794830 470.765961,363.800385
	C471.712830,348.537354 464.663452,339.256958 451.114990,335.329132
	C434.201385,330.425690 416.820129,329.247406 398.427887,328.188904
M601.824219,422.745422
	C611.275940,424.705505 620.596130,426.228180 630.471008,424.880920
	C650.358276,422.167633 661.767639,410.125641 668.666382,392.517578
	C673.947021,379.039673 674.237549,364.875061 673.689087,350.704041
	C673.200745,338.085388 667.116150,331.100800 654.486267,330.041656
	C629.664856,327.960083 604.868103,328.308197 580.737183,335.541962
	C573.681030,337.657135 566.296814,339.854828 563.645752,348.471283
	C560.296021,359.358521 561.039062,370.015808 563.937561,380.808197
	C569.350830,400.964600 581.053162,415.440430 601.824219,422.745422
M320.408508,321.864410
	C316.669708,322.903595 317.126190,325.928650 317.138397,328.752533
	C317.147186,330.786499 317.864136,332.474213 319.979858,332.881775
	C325.332489,333.912781 330.634674,335.507111 336.214966,334.366333
	C339.908112,333.611359 342.549774,331.736725 342.336151,327.776733
	C342.114105,323.660400 339.522705,320.855408 335.432434,320.459442
	C330.675079,319.998840 325.794037,319.603302 320.408508,321.864410
M690.343872,325.145996
	C689.661072,329.350739 690.083679,333.100464 695.358276,333.491669
	C699.973633,333.833954 704.631470,333.709900 709.267517,333.627167
	C711.843079,333.581177 713.657654,332.128479 714.424500,329.664978
	C715.249268,327.015320 714.306946,324.675629 712.413391,322.874725
	C707.842834,318.527893 695.002563,319.473511 690.343872,325.145996
z"/>
	<path fill="url(#mainGradient)" opacity="1.000000" stroke="none"
		  d="
M539.933472,560.000000
	C539.929565,549.668579 539.747131,539.833191 539.963074,530.006592
	C540.300903,514.635437 550.649658,504.325623 564.999634,504.737640
	C575.727478,505.045624 586.284790,514.128662 588.244995,524.803223
	C588.937317,528.573608 589.284668,532.375305 589.275391,536.228821
	C589.135986,594.050720 589.285339,651.874878 588.794678,709.693604
	C588.617981,730.520203 589.567627,751.329163 589.072693,772.145020
	C588.064270,814.559509 616.827393,845.714600 649.902222,856.080566
	C662.842285,860.136047 676.140503,859.638855 689.414307,857.698975
	C696.140015,856.716064 702.656738,854.549316 709.582764,854.641418
	C720.491821,854.786621 729.852356,861.741028 732.915771,872.339783
	C735.438660,881.068604 730.394775,891.880493 721.392639,897.363281
	C713.494446,902.173828 704.526184,903.556213 695.713989,904.834473
	C686.201355,906.214294 676.628723,907.287292 666.899658,907.262390
	C640.148193,907.193909 616.673096,897.765686 595.577087,882.337036
	C570.440735,863.953552 554.184204,838.901367 544.682190,809.455078
	C541.190674,798.635010 540.042419,787.325378 540.032776,775.960938
	C539.971802,704.140625 539.960938,632.320312 539.933472,560.000000
z"/>
	<path fill="url(#mainGradient)" opacity="1.000000" stroke="none"
		  d="
M430.671997,885.732544
	C402.896027,903.180542 373.382782,910.878845 340.886963,905.612366
	C331.382202,904.071899 321.700592,903.647705 312.915344,899.109375
	C303.092682,894.035095 297.588898,880.519287 301.082916,869.947021
	C304.627808,859.220825 315.501587,852.950928 327.110565,854.422424
	C338.621094,855.881348 349.812347,859.026428 361.641724,858.996765
	C383.863617,858.941162 401.755951,850.149719 417.315399,834.930298
	C429.752411,822.764954 437.999023,808.226868 441.250488,791.430542
	C443.834137,778.083862 444.236664,764.332458 443.623932,750.637146
	C442.379791,722.830322 443.030853,695.003357 442.979248,667.184692
	C442.899872,624.364563 442.903412,581.544373 442.892090,538.724182
	C442.890442,532.406067 442.868042,526.100647 445.309174,520.058655
	C449.166901,510.510406 458.764313,504.067627 468.291260,504.835999
	C478.276123,505.641327 487.790375,513.790100 489.998932,523.493469
	C490.885437,527.388306 491.408478,531.307068 491.403351,535.346680
	C491.304779,612.657043 491.303253,689.967468 491.202209,767.277771
	C491.183960,781.248779 490.385681,795.130615 486.555908,808.736572
	C477.728821,840.096802 459.482544,864.686890 433.414032,883.787354
	C432.607422,884.378357 431.783081,884.945129 430.671997,885.732544
z"/>
	<path fill="url(#mainGradient)" opacity="1.000000" stroke="none"
		  d="
M891.641235,541.221924
	C889.078186,516.877625 860.262817,492.025085 833.414612,497.769012
	C808.164856,503.170959 790.428040,526.444641 790.958191,548.731018
	C791.119141,555.499512 791.723633,562.327820 789.421509,569.032471
	C785.715942,579.824524 774.281555,588.186890 763.996826,587.157715
	C753.307739,586.088013 744.358154,576.879944 742.714539,565.146912
	C738.120667,532.352600 748.773132,504.748505 771.203796,481.064911
	C783.014465,468.594666 796.769226,459.277924 813.385071,454.659515
	C844.590637,445.985840 873.599304,450.197327 899.990051,469.732758
	C919.495972,484.171722 932.018250,503.262543 938.261292,526.525574
	C940.313843,534.173828 942.648071,541.883301 940.322266,550.050293
	C936.724731,562.682800 928.831909,569.272156 916.511719,569.526001
	C905.773621,569.747314 897.459900,563.261047 893.673157,551.405823
	C892.668701,548.261353 892.317505,544.908203 891.641235,541.221924
z"/>
	<path fill="url(#mainGradient)" opacity="1.000000" stroke="none"
		  d="
M140.945663,462.860809
	C160.615524,451.361603 181.639664,448.128723 203.385254,451.687103
	C244.273773,458.378021 269.875336,483.156464 283.507202,521.525024
	C288.129730,534.535706 290.330444,547.842957 289.121002,561.532593
	C287.900940,575.342407 279.288788,585.120117 264.039795,586.725647
	C254.578003,587.721863 243.442825,577.383972 240.755753,566.126892
	C238.905502,558.375610 240.154846,550.533630 239.167694,542.764221
	C235.579910,514.526306 207.802322,493.804840 179.829071,497.913513
	C161.785690,500.563660 142.422745,517.929993 140.827454,538.923645
	C139.945801,550.526123 136.267502,561.179077 124.964172,567.233704
	C111.807785,574.280884 96.725845,567.421021 92.509750,553.089783
	C88.513885,539.507141 92.243546,526.866394 96.998100,514.712952
	C105.603859,492.715149 120.114113,475.227325 140.945663,462.860809
z"/>
	<path fill="url(#mainGradient)" opacity="1.000000" stroke="none"
		  d="
M653.824951,827.310303
	C631.678528,818.830627 616.219360,803.473877 606.368530,782.787109
	C600.670898,770.822266 604.954102,758.478821 615.442078,751.089294
	C623.103516,745.691162 634.615051,746.176025 641.951416,752.126648
	C647.426270,756.567322 651.877319,761.968140 656.385925,767.312744
	C666.214172,778.963440 678.201660,784.771545 693.809753,782.178894
	C703.905579,780.501831 713.114441,786.422302 717.942871,796.197754
	C722.896179,806.226196 718.271057,815.304749 711.484802,821.777222
	C706.170166,826.846191 699.582581,829.671509 692.215576,830.409851
	C679.370117,831.697266 666.613525,831.722107 653.824951,827.310303
z"/>
	<path fill="url(#mainGradient)" opacity="1.000000" stroke="none"
		  d="
M384.128357,756.135498
	C394.546875,746.389954 405.131042,744.710327 414.544678,751.092773
	C424.643921,757.939941 429.456207,772.395508 423.949219,783.897156
	C410.618134,811.739807 389.024445,828.637024 357.468536,830.988892
	C350.006744,831.544983 342.467987,831.610962 335.060333,830.273743
	C325.188446,828.491699 317.726746,823.244385 314.404175,813.554626
	C311.375641,804.722412 312.102264,796.316040 318.661346,788.810120
	C324.711456,781.886658 332.841370,781.690674 340.673309,782.064575
	C353.578888,782.680786 364.635223,779.631042 373.165283,769.529785
	C376.811005,765.212585 380.313080,760.774109 384.128357,756.135498
z"/>
	<path fill="url(#mainGradient)" opacity="1.000000" stroke="none"
		  d="
M126.083000,744.743652
	C108.705597,746.913818 96.763733,738.223694 94.476730,721.139038
	C89.890297,686.876953 100.233131,658.008484 127.353027,635.994568
	C135.214066,629.613586 144.115738,625.623047 155.023605,628.537720
	C168.889008,632.242737 179.570541,652.323914 168.165558,665.098022
	C165.248352,668.365356 162.169250,671.434265 158.570084,673.778503
	C144.932770,682.661011 141.371796,695.481140 143.676071,710.685669
	C144.698593,717.432678 144.107101,723.967773 141.591522,730.295227
	C138.775803,737.377563 133.563919,741.989685 126.083000,744.743652
z"/>
	<path fill="url(#mainGradient)" opacity="1.000000" stroke="none"
		  d="
M887.712830,714.948608
	C887.745789,709.291382 887.570496,704.113708 887.859131,698.962158
	C888.439148,688.610779 883.634949,681.154846 875.697083,675.237427
	C872.759399,673.047485 869.692139,671.005859 866.926025,668.616455
	C860.255127,662.853943 857.392212,655.250061 858.967346,646.783325
	C860.789673,636.987000 867.084656,631.185364 876.994263,628.360779
	C885.506409,625.934509 892.709473,628.353394 899.107910,632.733215
	C919.836792,646.922302 932.888916,666.239868 936.243774,691.572754
	C937.710388,702.647278 939.584778,713.722168 936.054138,724.719116
	C933.489624,732.706604 929.412354,739.644653 921.329468,743.311584
	C908.196533,749.269531 894.118103,742.920166 889.642395,729.184814
	C888.175049,724.681702 887.426941,720.152405 887.712830,714.948608
z"/>

	<!-- Очки для осьминога -->
	<path fill="url(#glassesGradient)" opacity="1.000000" stroke="none"
		  d="
M405.090515,350.783295
	C419.171173,344.597443 434.821014,353.978119 437.645966,370.701904
	C439.080170,379.192383 432.026123,389.837372 422.290985,394.213959
	C414.992493,397.495117 407.771912,397.517120 401.003174,392.925415
	C393.023407,387.512177 390.548859,379.386414 391.251831,370.332336
	C391.941345,361.452179 396.362457,354.706299 405.090515,350.783295
z"/>

	<path fill="url(#glassesGradient)" opacity="1.000000" stroke="none"
		  d="
M629.594116,392.787781
	C619.647827,399.399200 606.952698,396.859619 600.739685,388.388031
	C593.320007,378.271088 594.042053,364.062531 602.720947,354.955475
	C610.033508,347.282166 623.189819,345.985687 631.822388,353.274078
	C644.572632,364.038910 647.861633,380.816498 629.594116,392.787781
z"/>

	<!-- Дужка очков -->
	<path fill="none" stroke="url(#glassesGradient)" stroke-width="6" d="M430 370 L600 370" />

	<!-- Белки глаз -->
	<ellipse fill="white" cx="420" cy="370" rx="30" ry="30" />
	<ellipse fill="white" cx="610" cy="370" rx="30" ry="30" />

	<!-- Зрачки -->
	<ellipse fill="#1A1A1A" cx="420" cy="370" rx="15" ry="15" />
	<ellipse fill="#1A1A1A" cx="610" cy="370" rx="15" ry="15" />

	<!-- Блики на глазах -->
	<ellipse fill="white" cx="425" cy="365" rx="5" ry="5" />
	<ellipse fill="white" cx="615" cy="365" rx="5" ry="5" />
</svg>